<?xml version="1.0" standalone="no"?>
<!DOCTYPE svg PUBLIC "-//W3C//DTD SVG 20010904//EN"
 "http://www.w3.org/TR/2001/REC-SVG-20010904/DTD/svg10.dtd">
<svg version="1.0" xmlns="http://www.w3.org/2000/svg"
 width="600.000000pt" height="600.000000pt" viewBox="0 0 600.000000 600.000000"
 preserveAspectRatio="xMidYMid meet">
<metadata>
Created by potrace 1.11, written by Peter Selinger 2001-2013
</metadata>
<g transform="translate(0.000000,600.000000) scale(0.100000,-0.100000)"
fill="#000000" stroke="none">
<path d="M0 3000 l0 -3000 3000 0 3000 0 0 3000 0 3000 -3000 0 -3000 0 0
-3000z m3070 2170 l0 -100 260 0 260 0 0 -100 0 -100 -255 0 -255 0 0 -935 0
-935 110 0 110 0 0 -100 0 -100 -110 0 -110 0 0 -800 0 -800 375 0 375 0 0
-95 0 -95 -375 0 -375 0 0 -145 0 -145 -100 0 -100 0 0 140 0 140 -355 0 -355
0 0 100 0 100 350 0 350 0 0 800 0 800 -195 0 -195 0 0 100 0 100 195 0 195 0
0 935 0 935 -120 0 -121 0 3 98 3 97 123 3 122 3 0 99 0 100 95 0 95 0 0 -100z"/>
</g>
</svg>
